<?xml version="1.0" encoding="UTF-8" standalone="no"?>
<!-- Created with Inkscape (http://www.inkscape.org/) -->

<svg
   width="320.37256mm"
   height="405.25671mm"
   viewBox="0 0 320.37256 405.25671"
   version="1.1"
   id="svg1"
   xml:space="preserve"
   inkscape:version="1.4.2 (ebf0e940d0, 2025-05-08)"
   sodipodi:docname="drawing.svg"
   inkscape:export-filename="drawing.svg"
   inkscape:export-xdpi="96"
   inkscape:export-ydpi="96"
   xmlns:inkscape="http://www.inkscape.org/namespaces/inkscape"
   xmlns:sodipodi="http://sodipodi.sourceforge.net/DTD/sodipodi-0.dtd"
   xmlns="http://www.w3.org/2000/svg"
   xmlns:svg="http://www.w3.org/2000/svg"><sodipodi:namedview
     id="namedview1"
     pagecolor="#191919"
     bordercolor="#000000"
     borderopacity="0.25"
     inkscape:showpageshadow="2"
     inkscape:pageopacity="0.0"
     inkscape:pagecheckerboard="false"
     inkscape:deskcolor="#202020"
     inkscape:document-units="px"
     inkscape:zoom="0.9656884"
     inkscape:cx="-4268.9754"
     inkscape:cy="3789.0069"
     inkscape:window-width="1596"
     inkscape:window-height="858"
     inkscape:window-x="0"
     inkscape:window-y="38"
     inkscape:window-maximized="1"
     inkscape:current-layer="layer5"><inkscape:page
       x="0"
       y="0"
       width="320.37256"
       height="405.25671"
       id="page2"
       margin="0"
       bleed="0" /></sodipodi:namedview><defs
     id="defs1" /><g
     inkscape:groupmode="layer"
     id="layer5"
     inkscape:label="Layer 5"
     transform="translate(-670.78645,-9.6839536)"><g
       id="g5"
       inkscape:export-filename="g5.png"
       inkscape:export-xdpi="96"
       inkscape:export-ydpi="96"
       transform="matrix(2.4217141,0,0,2.3106427,576.69258,-141.72785)"><g
         id="g4"
         style="fill:#b3b3b3"
         transform="matrix(5.4392584,0,0,5.748777,3528.4212,2116.3058)"><path
           style="fill:#b3b3b3;stroke-width:1.77113"
           d="m -2382.2424,-1245.8573 c -9.6221,-6.5343 -17.1875,-13.7455 -22.0743,-21.0407 -3.7646,-5.62 -7.3069,-13.8839 -8.2841,-19.3264 -1.1456,-6.3806 -2.5029,-32.0051 -2.0027,-37.809 0.2394,-2.7775 0.3887,-3.2618 1.3403,-4.3455 3.1212,-3.5549 14.882,-7.8571 25.1818,-9.2117 5.3014,-0.6972 17.6109,-0.5184 22.0311,0.3202 7.7394,1.4682 13.8167,3.6159 19.4824,6.885 l 3.5423,2.0439 0.1075,9.2075 c 0.3553,30.4071 -2.1739,42.3765 -11.4514,54.1942 -5.8126,7.4041 -21.5681,21.0764 -24.2876,21.0764 -0.3571,0 -1.9705,-0.8973 -3.5853,-1.9939 z"
           id="path3"
           transform="scale(0.26458333)" /><path
           style="fill:#b3b3b3;stroke-width:1.77113"
           d="m -2382.663,-1233.7388 c -5.0372,-2.1177 -13.0451,-8.3666 -21.3282,-16.6436 -6.385,-6.3802 -9.186,-9.8443 -12.1102,-14.9773 -4.5238,-7.9408 -6.6901,-15.4548 -7.8956,-27.3869 -0.2066,-2.0456 -0.4636,-12.0132 -0.571,-22.1502 l -0.1954,-18.4309 2.8864,-2.2913 c 3.8496,-3.0559 8.3282,-5.5592 13.851,-7.7418 9.0119,-3.5614 11.7798,-4.0971 24.2417,-4.6918 9.7028,-0.4629 16.9036,-0.2234 21.2763,0.7078 9.1532,1.9493 21.7215,7.3554 27.8995,12.0006 l 1.7694,1.3304 -0.2354,18.0655 c -0.339,26.0166 -0.8365,32.6788 -2.9215,39.1219 -1.1513,3.5576 -5.2788,11.9173 -7.5769,15.3457 -5.3558,7.9903 -15.1369,17.4144 -24.6385,23.7392 -7.1117,4.734 -10.4877,5.6691 -14.4516,4.0027 z m 9.8824,-9.2417 c 12.1506,-7.9995 22.5302,-19.1131 27.1108,-29.0279 2.9884,-6.4684 4.5192,-11.981 5.3162,-19.1441 0.5837,-5.2467 0.4811,-39.5058 -0.1201,-40.107 -0.2482,-0.2482 -3.2353,-1.8562 -6.6379,-3.5734 -8.8513,-4.4669 -12.3584,-5.4423 -22.0194,-6.1239 -7.5957,-0.536 -22.1163,-0.2192 -25.9071,0.5651 -5.2283,1.0817 -13.5008,4.4001 -19.4148,7.7881 l -3.3144,1.8987 0.038,17.1195 c 0.021,9.5688 0.2105,18.8647 0.4294,21.0763 0.9681,9.7764 6.0329,23.4102 10.9784,29.5525 5.4666,6.7893 21.559,20.9923 26.0822,23.0197 1.6833,0.7545 1.701,0.7473 7.459,-3.0436 z"
           id="path4"
           transform="scale(0.26458333)" /></g><g
         id="g1"
         transform="matrix(1.2809227,0,0,1.2763692,1035.7858,-1040.8597)"
         style="fill:#1a1a1a"><path
           style="fill:#1a1a1a;stroke:#ffffff;stroke-width:0.167873;stroke-opacity:0"
           d="m -753.06897,966.45021 c 0,-0.2478 4.14859,-7.5858 10.18023,-18.0067 5.59912,-9.6736 10.18205,-17.6642 10.18428,-17.7568 0.002,-0.093 -4.55827,-8.0607 -10.13445,-17.7068 -6.297,-10.893 -10.16281,-17.7465 -10.20266,-18.0877 l -0.0642,-0.5494 h 5.35452 5.35451 l 7.68176,13.6601 c 4.22496,7.5131 7.77269,13.781 7.88383,13.9285 0.16946,0.225 1.43232,-1.98 7.82337,-13.6601 l 7.62128,-13.9285 h 5.34689 5.34689 v 0.4516 c 0,0.2866 -3.6301,6.8943 -9.93248,18.0796 -5.46286,9.6953 -9.93201,17.7074 -9.93144,17.8045 5.6e-4,0.097 4.58348,8.0953 10.18428,17.7735 5.87766,10.1569 10.18325,17.7703 10.18325,18.0068 v 0.4096 l -5.3974,-0.044 -5.39741,-0.045 -7.73864,-13.8349 c -4.25625,-7.6091 -7.80255,-13.8266 -7.88065,-13.8166 -0.0781,0.01 -3.63941,6.2357 -7.91399,13.8348 l -7.77198,13.8167 -5.38993,0.045 -5.38993,0.044 z"
           id="path40-1-6" /><path
           style="fill:#1a1a1a;stroke:#ff0000;stroke-width:0.193088;stroke-opacity:1"
           d="m -728.6874,910.13301 c -2.31769,-0.6309 -4.27656,-2.2497 -5.28981,-4.3714 -0.56293,-1.1788 -0.59935,-1.3901 -0.59935,-3.4756 0,-2.0653 0.0394,-2.3014 0.56741,-3.3791 1.69649,-3.4639 5.81647,-5.3109 9.49079,-4.2548 4.79394,1.3779 7.17498,6.7779 4.97466,11.2821 -0.61725,1.2635 -2.17016,2.8936 -3.31145,3.4758 -1.80374,0.9202 -4.07411,1.2016 -5.83225,0.723 z"
           id="path41-0-2" /></g></g></g></svg>
